<svg xmlns="http://www.w3.org/2000/svg" viewBox="0 0 520 381.18"><defs><style>.cls-1{fill:#3a61a8;}.cls-2{fill:#eb689d;}</style></defs><title>icon</title><g id="Layer_2" data-name="Layer 2"><g id="Layer_1-2" data-name="Layer 1"><path class="cls-1" d="M261,219c-12.92-21.26-33.37-37.53-58.63-40,2.14.21,7.94-6,9.5-7.38,16.63-14.7,26.32-34.54,29.69-56.34,3.53-22.81.53-46.91-10.44-67.21C206.68,2.87,159.15,1,114.05.75,76.59.58,45.73.58,2.31.2A9.38,9.38,0,0,1,0,0V380l156.62,1.16c64.42.48,125.45-49.75,119.18-117.77A105.37,105.37,0,0,0,261,219ZM92.6,77.86c16.77-1.1,37.82-1.68,51.62,9.44C156.45,97.16,160,116,153,130c-11.24,22.38-38.75,22.35-60.37,21.07Zm78.58,211c-12.39,11.2-33.74,13.45-50.85,14.25-11.56.54-21.15.31-27.73,0V223.92c29.66-1.88,87.37-4,88.77,38.63C181.77,274.56,177.72,283,171.18,288.88Z"/><rect class="cls-1" x="315.72" y="124.34" width="88.17" height="256"/><ellipse class="cls-2" cx="473.18" cy="174.61" rx="46.82" ry="48.78"/></g></g></svg>